<svg width="150" height="24" viewBox="0 0 150 24" fill="none" xmlns="http://www.w3.org/2000/svg">
<path d="M0 23.0067L8.15988 0.403809H12.2098L20.3696 23.0067H16.2038L14.3786 17.7801H5.93953L4.1143 23.0067H0ZM7.11198 14.4431H13.2362L10.6379 7.14215C10.4409 6.58182 10.2859 6.00761 10.1741 5.42428C10.0406 6.0054 9.87572 6.57887 9.68019 7.14215L7.11198 14.4431Z" fill="#0E0CFF"/>
<path d="M21.9844 23.0067V0.403809H30.6124C35.766 0.403809 38.7465 2.98061 38.7465 7.45137C38.7465 10.4834 37.3249 12.6479 34.6665 13.7302L38.9612 23.0067H34.6322L30.797 14.5676H25.9441V23.0067H21.9844ZM25.9441 11.0718H30.6124C33.1205 11.0718 34.6021 9.74043 34.6021 7.45137C34.6021 5.16231 33.1205 3.92973 30.6124 3.92973H25.9441V11.0718Z" fill="#0E0CFF"/>
<path d="M41.4651 23.0067V0.403809H55.5044V4.04999H45.4248V9.87785H54.4436V13.3737H45.4248V19.3863H55.5044V23.0324L41.4651 23.0067Z" fill="#0E0CFF"/>
<path d="M57.6387 23.0067L65.7985 0.403809H69.8484L78.0083 23.0067H73.8339L72.0172 17.7801H63.561L61.7358 23.0067H57.6387ZM64.7506 14.4431H70.862L68.2637 7.14215C68.0647 6.58244 67.9096 6.00808 67.7999 5.42428C67.6664 6.0054 67.5015 6.57887 67.306 7.14215L64.7506 14.4431Z" fill="#0E0CFF"/>
<path d="M83.583 15.2161V23.0067H79.6233V0.403809H88.5605C93.1043 0.403809 96.0418 3.37143 96.0418 7.79494C96.0418 12.2185 93.0742 15.2161 88.5605 15.2161H83.583ZM83.583 3.92973V11.6902H87.7273C90.4459 11.6902 91.9018 10.2343 91.9018 7.76058C91.9018 5.28685 90.4158 3.92973 87.7875 3.92973H83.583Z" fill="#0E0CFF"/>
<path d="M94.7749 23.0067L102.935 0.403809H106.985L115.145 23.0067H110.97L109.153 17.7801H100.71L98.8892 23.0067H94.7749ZM101.887 14.4431H108.011L105.413 7.14215C105.216 6.58182 105.061 6.00761 104.949 5.42428C104.815 6.0054 104.651 6.57887 104.455 7.14215L101.887 14.4431Z" fill="#0E0CFF"/>
<path d="M124.116 0C128.694 0 131.597 2.53386 131.722 6.61809H127.767C127.676 4.66831 126.285 3.52593 124.056 3.52593C121.617 3.52593 120.036 4.69837 120.036 6.58803C120.036 8.19423 120.895 9.09182 122.789 9.52558L126.345 10.2986C130.21 11.1318 132.1 13.1116 132.1 16.483C132.1 20.6874 128.819 23.4103 123.841 23.4103C119.018 23.4103 115.862 20.8335 115.771 16.7922H119.727C119.761 18.7076 121.307 19.8543 123.841 19.8543C126.47 19.8543 128.136 18.7076 128.136 16.8222C128.136 15.3062 127.363 14.4129 125.507 14.0092L121.921 13.2061C118.086 12.3687 116.076 10.1741 116.076 6.71257C116.081 2.75288 119.358 0 124.116 0Z" fill="#0E0CFF"/>
<path d="M142.025 0C146.599 0 149.506 2.53386 149.631 6.61809H145.671C145.581 4.66831 144.189 3.52593 141.96 3.52593C139.517 3.52593 137.941 4.69837 137.941 6.58803C137.941 8.19423 138.799 9.09182 140.693 9.52558L144.249 10.2986C148.115 11.1318 150 13.1116 150 16.483C150 20.6874 146.723 23.4103 141.746 23.4103C136.918 23.4103 133.766 20.8335 133.672 16.7922H137.631C137.661 18.7076 139.207 19.8543 141.746 19.8543C144.374 19.8543 146.04 18.7076 146.04 16.8222C146.04 15.3062 145.267 14.4129 143.412 14.0092L139.822 13.2061C135.991 12.3687 133.994 10.1741 133.994 6.71257C133.994 2.75288 137.262 0 142.025 0Z" fill="#0E0CFF"/>
</svg>
